<svg xmlns="http://www.w3.org/2000/svg" width="20" height="20.002" viewBox="0 0 20 20.002">
  <g id="组_633" data-name="组 633" transform="translate(18043.693 20983)">
    <path id="路径_327" data-name="路径 327" d="M7.967,11.712a.3.3,0,0,0,.3-.286c.365-2.738.46-2.769,3.237-3.245.19-.032.3-.127.3-.3a.3.3,0,0,0-.27-.3c-2.785-.532-2.9-.5-3.269-3.245a.3.3,0,0,0-.3-.286.289.289,0,0,0-.293.278C7.292,7.094,7.237,7.149,4.4,7.578a.3.3,0,0,0-.27.3.308.308,0,0,0,.27.3c2.84.548,2.888.524,3.277,3.261A.288.288,0,0,0,7.967,11.712Zm-4.9-6.784a.176.176,0,0,0,.182-.167c.3-1.714.309-1.777,2.11-2.111a.183.183,0,0,0,.175-.183c0-.111-.071-.167-.175-.19-1.793-.365-1.73-.421-2.11-2.111A.176.176,0,0,0,3.071,0c-.1,0-.159.063-.182.167C2.516,1.857,2.6,1.912.786,2.277c-.1.024-.175.079-.175.19a.183.183,0,0,0,.175.183c1.809.365,1.793.4,2.1,2.111C2.913,4.864,2.968,4.928,3.071,4.928Z" transform="translate(-18035.5 -20983)" fill="#fff"/>
    <path id="路径_328" data-name="路径 328" d="M8.551,16.751a8.141,8.141,0,0,0,7.819-4.8.733.733,0,0,0-.054-.851.691.691,0,0,0-.759-.077,7.52,7.52,0,0,1-2.813.475c-4.477,0-7.329-2.768-7.329-7.207a7.421,7.421,0,0,1,.552-3.013A.791.791,0,0,0,5.96.421.776.776,0,0,0,5.048.344,8.574,8.574,0,0,0,.058,8.333,8.175,8.175,0,0,0,8.551,16.751Zm.015-1.288A6.974,6.974,0,0,1,1.345,8.241,7.81,7.81,0,0,1,4.6,1.916a7.736,7.736,0,0,0-.429,2.706c0,4.915,3.3,8.127,8.279,8.127a7.756,7.756,0,0,0,2.3-.314A7.321,7.321,0,0,1,8.567,15.463Z" transform="translate(-18043.752 -20979.75)" fill="#fff"/>
  </g>
</svg>
