<svg id="moon.fill" xmlns="http://www.w3.org/2000/svg" width="20" height="20" viewBox="0 0 20 20">
  <rect id="矩形_545" data-name="矩形 545" width="20" height="20" fill="#282828" opacity="0"/>
  <path id="路径_193" data-name="路径 193" d="M14.731,13.576c-5.165,0-8.546-3.515-8.546-8.977A11.226,11.226,0,0,1,6.777.966a1.076,1.076,0,0,0,.1-.42A.525.525,0,0,0,6.35,0a1.39,1.39,0,0,0-.472.095C2.361,1.6,0,5.6,0,9.824,0,15.69,4.266,19.973,9.821,19.973a9.569,9.569,0,0,0,8.906-5.929,1.669,1.669,0,0,0,.082-.491.561.561,0,0,0-.532-.586.972.972,0,0,0-.352.071A10.285,10.285,0,0,1,14.731,13.576Z" fill="#282828"/>
</svg>
